<svg id="Lager_1" data-name="Lager 1" xmlns="http://www.w3.org/2000/svg" viewBox="0 0 198 147"><defs><style>.cls-1{fill:#ffd900;fill-rule:evenodd;}</style></defs><title>crown</title><path class="cls-1" d="M107.26,81l10.32-12L108.5,58l8.73-7.73-4.6-5.37-4.13-5.55L104.42,24.2,95.74,24,91.57,38.5l-3.79,4.78L81.64,50l9,8.15L81.26,68.69,87,75l4.82,6.08-4,3.64-9.18,8.45-12-4.64-4.94-2.81,4.6-14.26-7-4.31L57.91,54l-6.32-.91S23.07,26.83,28.35,35,49.23,90.69,49.23,90.69l-1.85,10.72.38.52,2.71,3.62,3,18c.08-.17,13.8-11.37,46.51-11.37,23.5,0,43.79,12.42,43.79,12.42l4.07-18.36,3.39-4.25s-1.83-9.35-1.13-12.18a444.71,444.71,0,0,1,18.88-56.64h0L155.36,45.27l-10.91,9-5.65,1.26-.71,11.85L131,70.5l4.22,7.34,3.62,5.92-5,3.49L121.16,93.4"/></svg>